<mxfile host="app.diagrams.net" agent="Mozilla/5.0 (Windows NT 10.0; Win64; x64) AppleWebKit/537.36 (KHTML, like Gecko) Chrome/135.0.0.0 Safari/537.36 Edg/135.0.0.0" version="26.1.0">
  <diagram name="Page-1" id="X2C6xh8QtF51MwC3JW-X">
    <mxGraphModel dx="2625" dy="1528" grid="1" gridSize="10" guides="1" tooltips="1" connect="1" arrows="1" fold="1" page="1" pageScale="1" pageWidth="1169" pageHeight="827" math="0" shadow="0">
      <root>
        <mxCell id="0" />
        <mxCell id="1" parent="0" />
        <mxCell id="HJKKe0q7DVVsvUEyXQ_3-3" value="&lt;font style=&quot;font-size: 48px;&quot;&gt;&lt;b&gt;Hotel&lt;/b&gt;&lt;/font&gt;" style="whiteSpace=wrap;html=1;align=center;fillColor=#dae8fc;strokeColor=#6c8ebf;" vertex="1" parent="1">
          <mxGeometry x="160" y="320" width="240" height="120" as="geometry" />
        </mxCell>
        <mxCell id="HJKKe0q7DVVsvUEyXQ_3-38" style="edgeStyle=orthogonalEdgeStyle;rounded=0;orthogonalLoop=1;jettySize=auto;html=1;exitX=0.5;exitY=1;exitDx=0;exitDy=0;" edge="1" parent="1">
          <mxGeometry relative="1" as="geometry">
            <mxPoint x="1540" y="400" as="sourcePoint" />
            <mxPoint x="1540" y="400" as="targetPoint" />
          </mxGeometry>
        </mxCell>
        <mxCell id="HJKKe0q7DVVsvUEyXQ_3-97" value="&lt;b&gt;&lt;font style=&quot;font-size: 36px;&quot;&gt;hotel_id&lt;/font&gt;&lt;/b&gt;" style="ellipse;whiteSpace=wrap;html=1;align=center;strokeColor=#56517e;verticalAlign=middle;fontFamily=Helvetica;fontSize=12;fillColor=#d0cee2;" vertex="1" parent="1">
          <mxGeometry x="584" y="160" width="160" height="100" as="geometry" />
        </mxCell>
        <mxCell id="HJKKe0q7DVVsvUEyXQ_3-114" value="&lt;table&gt;&lt;tbody&gt;&lt;tr&gt;&lt;td data-end=&quot;781&quot; data-start=&quot;762&quot; class=&quot;max-w-[calc(var(--thread-content-max-width)*2/3)]&quot;&gt;&lt;code data-end=&quot;777&quot; data-start=&quot;764&quot;&gt;&lt;b&gt;&lt;font style=&quot;font-size: 24px;&quot;&gt;room_number&lt;/font&gt;&lt;/b&gt;&lt;/code&gt;&lt;/td&gt;&lt;/tr&gt;&lt;/tbody&gt;&lt;/table&gt;&lt;table&gt;&lt;tbody&gt;&lt;tr&gt;&lt;td data-end=&quot;816&quot; data-start=&quot;781&quot; class=&quot;max-w-[calc(var(--thread-content-max-width)*2/3)]&quot;&gt;&lt;/td&gt;&lt;/tr&gt;&lt;/tbody&gt;&lt;/table&gt;" style="ellipse;whiteSpace=wrap;html=1;align=center;strokeColor=#56517e;verticalAlign=middle;fontFamily=Helvetica;fontSize=12;fillColor=#d0cee2;" vertex="1" parent="1">
          <mxGeometry x="1000" y="155" width="160" height="100" as="geometry" />
        </mxCell>
        <mxCell id="HJKKe0q7DVVsvUEyXQ_3-115" value="&lt;table&gt;&lt;tbody&gt;&lt;tr&gt;&lt;td data-end=&quot;946&quot; data-start=&quot;927&quot; class=&quot;max-w-[calc(var(--thread-content-max-width)*2/3)]&quot;&gt;&lt;code data-end=&quot;943&quot; data-start=&quot;929&quot;&gt;&lt;font style=&quot;font-size: 24px;&quot;&gt;&lt;b style=&quot;&quot;&gt;is_available&lt;/b&gt;&lt;/font&gt;&lt;/code&gt;&lt;/td&gt;&lt;/tr&gt;&lt;/tbody&gt;&lt;/table&gt;&lt;table&gt;&lt;tbody&gt;&lt;tr&gt;&lt;td data-end=&quot;981&quot; data-start=&quot;946&quot; class=&quot;max-w-[calc(var(--thread-content-max-width)*2/3)]&quot;&gt;&lt;/td&gt;&lt;/tr&gt;&lt;/tbody&gt;&lt;/table&gt;" style="ellipse;whiteSpace=wrap;html=1;align=center;strokeColor=#56517e;verticalAlign=middle;fontFamily=Helvetica;fontSize=12;fillColor=#d0cee2;" vertex="1" parent="1">
          <mxGeometry x="1009" y="500" width="160" height="100" as="geometry" />
        </mxCell>
        <mxCell id="HJKKe0q7DVVsvUEyXQ_3-116" value="&lt;b&gt;&lt;font style=&quot;font-size: 36px;&quot;&gt;&lt;u&gt;room_id&lt;/u&gt;&lt;/font&gt;&lt;/b&gt;" style="ellipse;whiteSpace=wrap;html=1;align=center;strokeColor=#ae4132;verticalAlign=middle;fontFamily=Helvetica;fontSize=12;fillColor=#fad9d5;" vertex="1" parent="1">
          <mxGeometry x="800" y="70" width="160" height="100" as="geometry" />
        </mxCell>
        <mxCell id="HJKKe0q7DVVsvUEyXQ_3-117" value="&lt;b&gt;&lt;font style=&quot;font-size: 24px;&quot;&gt;room_type&lt;/font&gt;&lt;/b&gt;" style="ellipse;whiteSpace=wrap;html=1;align=center;strokeColor=#56517e;verticalAlign=middle;fontFamily=Helvetica;fontSize=12;fillColor=#d0cee2;" vertex="1" parent="1">
          <mxGeometry x="600" y="500" width="160" height="100" as="geometry" />
        </mxCell>
        <mxCell id="HJKKe0q7DVVsvUEyXQ_3-119" value="&lt;table&gt;&lt;tbody&gt;&lt;tr&gt;&lt;td data-end=&quot;891&quot; data-start=&quot;872&quot; class=&quot;max-w-[calc(var(--thread-content-max-width)*2/3)]&quot;&gt;&lt;code data-end=&quot;891&quot; data-start=&quot;874&quot;&gt;&lt;font style=&quot;font-size: 18px;&quot;&gt;&lt;b&gt;price_per_night&lt;/b&gt;&lt;/font&gt;&lt;/code&gt;&lt;/td&gt;&lt;/tr&gt;&lt;/tbody&gt;&lt;/table&gt;&lt;table&gt;&lt;tbody&gt;&lt;tr&gt;&lt;td data-end=&quot;926&quot; data-start=&quot;891&quot; class=&quot;max-w-[calc(var(--thread-content-max-width)*2/3)]&quot;&gt;&lt;/td&gt;&lt;/tr&gt;&lt;/tbody&gt;&lt;/table&gt;" style="ellipse;whiteSpace=wrap;html=1;align=center;strokeColor=#56517e;verticalAlign=middle;fontFamily=Helvetica;fontSize=12;fillColor=#d0cee2;" vertex="1" parent="1">
          <mxGeometry x="800" y="580" width="160" height="100" as="geometry" />
        </mxCell>
        <mxCell id="HJKKe0q7DVVsvUEyXQ_3-120" value="&lt;font style=&quot;font-size: 24px;&quot;&gt;&lt;b style=&quot;&quot;&gt;city&lt;/b&gt;&lt;/font&gt;" style="ellipse;whiteSpace=wrap;html=1;align=center;strokeColor=#56517e;verticalAlign=middle;fontFamily=Helvetica;fontSize=12;fillColor=#d0cee2;" vertex="1" parent="1">
          <mxGeometry x="200" y="580" width="160" height="100" as="geometry" />
        </mxCell>
        <mxCell id="HJKKe0q7DVVsvUEyXQ_3-121" value="&lt;b&gt;&lt;font style=&quot;font-size: 36px;&quot;&gt;name&lt;/font&gt;&lt;/b&gt;" style="ellipse;whiteSpace=wrap;html=1;align=center;strokeColor=#56517e;verticalAlign=middle;fontFamily=Helvetica;fontSize=12;fillColor=#d0cee2;" vertex="1" parent="1">
          <mxGeometry x="390" y="160" width="160" height="100" as="geometry" />
        </mxCell>
        <mxCell id="HJKKe0q7DVVsvUEyXQ_3-122" value="&lt;b&gt;&lt;font style=&quot;font-size: 24px;&quot;&gt;&lt;u&gt;booking_id&lt;/u&gt;&lt;/font&gt;&lt;/b&gt;" style="ellipse;whiteSpace=wrap;html=1;align=center;strokeColor=#ae4132;verticalAlign=middle;fontFamily=Helvetica;fontSize=12;fillColor=#fad9d5;" vertex="1" parent="1">
          <mxGeometry x="1440" y="70" width="160" height="100" as="geometry" />
        </mxCell>
        <mxCell id="HJKKe0q7DVVsvUEyXQ_3-125" value="&lt;table&gt;&lt;tbody&gt;&lt;tr&gt;&lt;td data-end=&quot;1705&quot; data-start=&quot;1688&quot; class=&quot;max-w-[calc(var(--thread-content-max-width)*2/3)]&quot;&gt;&lt;code data-end=&quot;1699&quot; data-start=&quot;1690&quot;&gt;&lt;b&gt;&lt;font style=&quot;font-size: 36px;&quot;&gt;address&lt;/font&gt;&lt;/b&gt;&lt;/code&gt;&lt;/td&gt;&lt;/tr&gt;&lt;/tbody&gt;&lt;/table&gt;&lt;table&gt;&lt;tbody&gt;&lt;tr&gt;&lt;td data-end=&quot;1737&quot; data-start=&quot;1705&quot; class=&quot;max-w-[calc(var(--thread-content-max-width)*2/3)]&quot;&gt;&lt;/td&gt;&lt;/tr&gt;&lt;/tbody&gt;&lt;/table&gt;" style="ellipse;whiteSpace=wrap;html=1;align=center;strokeColor=#56517e;verticalAlign=middle;fontFamily=Helvetica;fontSize=12;fillColor=#d0cee2;" vertex="1" parent="1">
          <mxGeometry x="400" y="500" width="160" height="100" as="geometry" />
        </mxCell>
        <mxCell id="HJKKe0q7DVVsvUEyXQ_3-126" value="&lt;b&gt;&lt;font style=&quot;font-size: 24px;&quot;&gt;stars_rating&lt;/font&gt;&lt;/b&gt;" style="ellipse;whiteSpace=wrap;html=1;align=center;strokeColor=#56517e;verticalAlign=middle;fontFamily=Helvetica;fontSize=12;fillColor=#d0cee2;" vertex="1" parent="1">
          <mxGeometry x="10" y="500" width="160" height="100" as="geometry" />
        </mxCell>
        <mxCell id="HJKKe0q7DVVsvUEyXQ_3-127" style="edgeStyle=orthogonalEdgeStyle;rounded=0;orthogonalLoop=1;jettySize=auto;html=1;exitX=0.5;exitY=1;exitDx=0;exitDy=0;fontFamily=Helvetica;fontSize=12;fontColor=default;" edge="1" parent="1" source="HJKKe0q7DVVsvUEyXQ_3-3" target="HJKKe0q7DVVsvUEyXQ_3-3">
          <mxGeometry relative="1" as="geometry" />
        </mxCell>
        <mxCell id="HJKKe0q7DVVsvUEyXQ_3-129" value="&lt;font style=&quot;font-size: 36px;&quot;&gt;&lt;b&gt;&lt;u&gt;hotel_id&lt;/u&gt;&lt;/b&gt;&lt;/font&gt;" style="ellipse;whiteSpace=wrap;html=1;align=center;strokeColor=#ae4132;verticalAlign=middle;fontFamily=Helvetica;fontSize=12;fillColor=#fad9d5;" vertex="1" parent="1">
          <mxGeometry x="210" y="80" width="160" height="100" as="geometry" />
        </mxCell>
        <mxCell id="HJKKe0q7DVVsvUEyXQ_3-136" value="&lt;b&gt;&lt;font style=&quot;font-size: 36px;&quot;&gt;room_id&lt;/font&gt;&lt;/b&gt;" style="ellipse;whiteSpace=wrap;html=1;align=center;strokeColor=#56517e;verticalAlign=middle;fontFamily=Helvetica;fontSize=12;fillColor=#d0cee2;" vertex="1" parent="1">
          <mxGeometry x="1220" y="160" width="160" height="100" as="geometry" />
        </mxCell>
        <mxCell id="HJKKe0q7DVVsvUEyXQ_3-137" value="&lt;table&gt;&lt;tbody&gt;&lt;tr&gt;&lt;td data-end=&quot;1371&quot; data-start=&quot;1352&quot; class=&quot;max-w-[calc(var(--thread-content-max-width)*2/3)]&quot;&gt;&lt;code data-end=&quot;1370&quot; data-start=&quot;1354&quot;&gt;&lt;b&gt;&lt;font style=&quot;font-size: 18px;&quot;&gt;check_out_date&lt;/font&gt;&lt;/b&gt;&lt;/code&gt;&lt;/td&gt;&lt;/tr&gt;&lt;/tbody&gt;&lt;/table&gt;&lt;table&gt;&lt;tbody&gt;&lt;tr&gt;&lt;td data-end=&quot;1409&quot; data-start=&quot;1371&quot; class=&quot;max-w-[calc(var(--thread-content-max-width)*2/3)]&quot;&gt;&lt;/td&gt;&lt;/tr&gt;&lt;/tbody&gt;&lt;/table&gt;" style="ellipse;whiteSpace=wrap;html=1;align=center;strokeColor=#56517e;verticalAlign=middle;fontFamily=Helvetica;fontSize=12;fillColor=#d0cee2;" vertex="1" parent="1">
          <mxGeometry x="1220" y="500" width="160" height="100" as="geometry" />
        </mxCell>
        <mxCell id="HJKKe0q7DVVsvUEyXQ_3-138" value="&lt;font style=&quot;font-size: 24px;&quot;&gt;&lt;b&gt;customer_id&lt;/b&gt;&lt;/font&gt;" style="ellipse;whiteSpace=wrap;html=1;align=center;strokeColor=#56517e;verticalAlign=middle;fontFamily=Helvetica;fontSize=12;fillColor=#d0cee2;" vertex="1" parent="1">
          <mxGeometry x="1660" y="145" width="160" height="100" as="geometry" />
        </mxCell>
        <mxCell id="HJKKe0q7DVVsvUEyXQ_3-139" value="&lt;font style=&quot;font-size: 18px;&quot;&gt;&lt;b&gt;check_in_date&lt;/b&gt;&lt;/font&gt;" style="ellipse;whiteSpace=wrap;html=1;align=center;strokeColor=#56517e;verticalAlign=middle;fontFamily=Helvetica;fontSize=12;fillColor=#d0cee2;" vertex="1" parent="1">
          <mxGeometry x="1650" y="500" width="160" height="100" as="geometry" />
        </mxCell>
        <mxCell id="HJKKe0q7DVVsvUEyXQ_3-142" value="&lt;table&gt;&lt;tbody&gt;&lt;tr&gt;&lt;td data-end=&quot;1429&quot; data-start=&quot;1410&quot; class=&quot;max-w-[calc(var(--thread-content-max-width)*2/3)]&quot;&gt;&lt;code data-end=&quot;1425&quot; data-start=&quot;1412&quot;&gt;&lt;b&gt;&lt;font style=&quot;font-size: 24px;&quot;&gt;total_price&lt;/font&gt;&lt;/b&gt;&lt;/code&gt;&lt;/td&gt;&lt;/tr&gt;&lt;/tbody&gt;&lt;/table&gt;&lt;table&gt;&lt;tbody&gt;&lt;tr&gt;&lt;td data-end=&quot;1467&quot; data-start=&quot;1429&quot; class=&quot;max-w-[calc(var(--thread-content-max-width)*2/3)]&quot;&gt;&lt;/td&gt;&lt;/tr&gt;&lt;/tbody&gt;&lt;/table&gt;" style="ellipse;whiteSpace=wrap;html=1;align=center;strokeColor=#56517e;verticalAlign=middle;fontFamily=Helvetica;fontSize=12;fillColor=#d0cee2;" vertex="1" parent="1">
          <mxGeometry x="1440" y="580" width="160" height="100" as="geometry" />
        </mxCell>
        <mxCell id="HJKKe0q7DVVsvUEyXQ_3-144" value="&lt;b&gt;&lt;font style=&quot;font-size: 24px;&quot;&gt;&lt;u&gt;customer_id&lt;/u&gt;&lt;/font&gt;&lt;/b&gt;" style="ellipse;whiteSpace=wrap;html=1;align=center;strokeColor=#ae4132;verticalAlign=middle;fontFamily=Helvetica;fontSize=12;fillColor=#fad9d5;" vertex="1" parent="1">
          <mxGeometry x="1990" y="80" width="160" height="100" as="geometry" />
        </mxCell>
        <mxCell id="HJKKe0q7DVVsvUEyXQ_3-145" value="&lt;table&gt;&lt;tbody&gt;&lt;tr&gt;&lt;td data-end=&quot;361&quot; data-start=&quot;344&quot; class=&quot;max-w-[calc(var(--thread-content-max-width)*2/3)]&quot;&gt;&lt;code data-end=&quot;353&quot; data-start=&quot;346&quot;&gt;&lt;b&gt;&lt;font style=&quot;font-size: 36px;&quot;&gt;email&lt;/font&gt;&lt;/b&gt;&lt;/code&gt;&lt;/td&gt;&lt;/tr&gt;&lt;/tbody&gt;&lt;/table&gt;&lt;table&gt;&lt;tbody&gt;&lt;tr&gt;&lt;td data-end=&quot;388&quot; data-start=&quot;361&quot; class=&quot;max-w-[calc(var(--thread-content-max-width)*2/3)]&quot;&gt;&lt;/td&gt;&lt;/tr&gt;&lt;/tbody&gt;&lt;/table&gt;" style="ellipse;whiteSpace=wrap;html=1;align=center;strokeColor=#56517e;verticalAlign=middle;fontFamily=Helvetica;fontSize=12;fillColor=#d0cee2;" vertex="1" parent="1">
          <mxGeometry x="2000" y="580" width="160" height="100" as="geometry" />
        </mxCell>
        <mxCell id="HJKKe0q7DVVsvUEyXQ_3-146" value="&lt;table&gt;&lt;tbody&gt;&lt;tr&gt;&lt;td data-end=&quot;495&quot; data-start=&quot;478&quot; class=&quot;max-w-[calc(var(--thread-content-max-width)*2/3)]&quot;&gt;&lt;code data-end=&quot;492&quot; data-start=&quot;480&quot;&gt;&lt;b&gt;&lt;font style=&quot;font-size: 24px;&quot;&gt;created_at&lt;/font&gt;&lt;/b&gt;&lt;/code&gt;&lt;/td&gt;&lt;/tr&gt;&lt;/tbody&gt;&lt;/table&gt;&lt;table&gt;&lt;tbody&gt;&lt;tr&gt;&lt;td data-end=&quot;521&quot; data-start=&quot;495&quot; class=&quot;max-w-[calc(var(--thread-content-max-width)*2/3)]&quot;&gt;&lt;/td&gt;&lt;/tr&gt;&lt;/tbody&gt;&lt;/table&gt;" style="ellipse;whiteSpace=wrap;html=1;align=center;strokeColor=#56517e;verticalAlign=middle;fontFamily=Helvetica;fontSize=12;fillColor=#d0cee2;" vertex="1" parent="1">
          <mxGeometry x="2178" y="155" width="160" height="90" as="geometry" />
        </mxCell>
        <mxCell id="HJKKe0q7DVVsvUEyXQ_3-147" value="&lt;table&gt;&lt;tbody&gt;&lt;tr&gt;&lt;td data-end=&quot;317&quot; data-start=&quot;300&quot; class=&quot;max-w-[calc(var(--thread-content-max-width)*2/3)]&quot;&gt;&lt;code data-end=&quot;308&quot; data-start=&quot;302&quot;&gt;&lt;b&gt;&lt;font style=&quot;font-size: 36px;&quot;&gt;name&lt;/font&gt;&lt;/b&gt;&lt;/code&gt;&lt;/td&gt;&lt;/tr&gt;&lt;/tbody&gt;&lt;/table&gt;&lt;table&gt;&lt;tbody&gt;&lt;tr&gt;&lt;td data-end=&quot;343&quot; data-start=&quot;317&quot; class=&quot;max-w-[calc(var(--thread-content-max-width)*2/3)]&quot;&gt;&lt;/td&gt;&lt;/tr&gt;&lt;/tbody&gt;&lt;/table&gt;" style="ellipse;whiteSpace=wrap;html=1;align=center;strokeColor=#56517e;verticalAlign=middle;fontFamily=Helvetica;fontSize=12;fillColor=#d0cee2;" vertex="1" parent="1">
          <mxGeometry x="2178" y="500" width="160" height="100" as="geometry" />
        </mxCell>
        <mxCell id="HJKKe0q7DVVsvUEyXQ_3-149" style="edgeStyle=orthogonalEdgeStyle;rounded=0;orthogonalLoop=1;jettySize=auto;html=1;exitX=0.5;exitY=1;exitDx=0;exitDy=0;fontFamily=Helvetica;fontSize=12;fontColor=default;" edge="1" parent="1" source="HJKKe0q7DVVsvUEyXQ_3-115" target="HJKKe0q7DVVsvUEyXQ_3-115">
          <mxGeometry relative="1" as="geometry" />
        </mxCell>
        <mxCell id="HJKKe0q7DVVsvUEyXQ_3-152" value="&lt;font style=&quot;font-size: 48px;&quot;&gt;&lt;b&gt;Room&lt;/b&gt;&lt;/font&gt;" style="whiteSpace=wrap;html=1;align=center;fillColor=#dae8fc;strokeColor=#6c8ebf;" vertex="1" parent="1">
          <mxGeometry x="760" y="320" width="240" height="120" as="geometry" />
        </mxCell>
        <mxCell id="HJKKe0q7DVVsvUEyXQ_3-153" value="&lt;b style=&quot;&quot;&gt;&lt;font style=&quot;font-size: 48px;&quot;&gt;Booking&lt;/font&gt;&lt;/b&gt;" style="whiteSpace=wrap;html=1;align=center;fillColor=#dae8fc;strokeColor=#6c8ebf;" vertex="1" parent="1">
          <mxGeometry x="1400" y="320" width="240" height="120" as="geometry" />
        </mxCell>
        <mxCell id="HJKKe0q7DVVsvUEyXQ_3-154" value="&lt;span style=&quot;font-size: 48px;&quot;&gt;&lt;b&gt;customer&lt;/b&gt;&lt;/span&gt;" style="whiteSpace=wrap;html=1;align=center;fillColor=#dae8fc;strokeColor=#6c8ebf;" vertex="1" parent="1">
          <mxGeometry x="1960" y="320" width="240" height="120" as="geometry" />
        </mxCell>
        <mxCell id="HJKKe0q7DVVsvUEyXQ_3-157" value="" style="endArrow=none;html=1;rounded=0;fontFamily=Helvetica;fontSize=12;fontColor=default;exitX=1;exitY=1;exitDx=0;exitDy=0;entryX=0.5;entryY=0;entryDx=0;entryDy=0;" edge="1" parent="1" source="HJKKe0q7DVVsvUEyXQ_3-152" target="HJKKe0q7DVVsvUEyXQ_3-115">
          <mxGeometry relative="1" as="geometry">
            <mxPoint x="1010" y="450" as="sourcePoint" />
            <mxPoint x="1330" y="390" as="targetPoint" />
          </mxGeometry>
        </mxCell>
        <mxCell id="HJKKe0q7DVVsvUEyXQ_3-158" value="" style="endArrow=none;html=1;rounded=0;fontFamily=Helvetica;fontSize=12;fontColor=default;exitX=0.5;exitY=1;exitDx=0;exitDy=0;entryX=0.5;entryY=0;entryDx=0;entryDy=0;" edge="1" parent="1" source="HJKKe0q7DVVsvUEyXQ_3-152" target="HJKKe0q7DVVsvUEyXQ_3-119">
          <mxGeometry relative="1" as="geometry">
            <mxPoint x="1170" y="390" as="sourcePoint" />
            <mxPoint x="1330" y="390" as="targetPoint" />
          </mxGeometry>
        </mxCell>
        <mxCell id="HJKKe0q7DVVsvUEyXQ_3-159" value="" style="endArrow=none;html=1;rounded=0;fontFamily=Helvetica;fontSize=12;fontColor=default;exitX=0;exitY=1;exitDx=0;exitDy=0;entryX=0.5;entryY=0;entryDx=0;entryDy=0;" edge="1" parent="1" source="HJKKe0q7DVVsvUEyXQ_3-152" target="HJKKe0q7DVVsvUEyXQ_3-117">
          <mxGeometry relative="1" as="geometry">
            <mxPoint x="1170" y="390" as="sourcePoint" />
            <mxPoint x="1330" y="390" as="targetPoint" />
          </mxGeometry>
        </mxCell>
        <mxCell id="HJKKe0q7DVVsvUEyXQ_3-160" value="" style="endArrow=none;html=1;rounded=0;fontFamily=Helvetica;fontSize=12;fontColor=default;exitX=0;exitY=1;exitDx=0;exitDy=0;entryX=0.5;entryY=0;entryDx=0;entryDy=0;" edge="1" parent="1">
          <mxGeometry relative="1" as="geometry">
            <mxPoint x="1400" y="440" as="sourcePoint" />
            <mxPoint x="1320" y="500" as="targetPoint" />
          </mxGeometry>
        </mxCell>
        <mxCell id="HJKKe0q7DVVsvUEyXQ_3-162" value="" style="endArrow=none;html=1;rounded=0;fontFamily=Helvetica;fontSize=12;fontColor=default;exitX=0;exitY=0;exitDx=0;exitDy=0;entryX=0.5;entryY=1;entryDx=0;entryDy=0;" edge="1" parent="1" source="HJKKe0q7DVVsvUEyXQ_3-153" target="HJKKe0q7DVVsvUEyXQ_3-136">
          <mxGeometry relative="1" as="geometry">
            <mxPoint x="1170" y="390" as="sourcePoint" />
            <mxPoint x="1330" y="390" as="targetPoint" />
          </mxGeometry>
        </mxCell>
        <mxCell id="HJKKe0q7DVVsvUEyXQ_3-163" value="" style="endArrow=none;html=1;rounded=0;fontFamily=Helvetica;fontSize=12;fontColor=default;exitX=1;exitY=0;exitDx=0;exitDy=0;entryX=0.5;entryY=1;entryDx=0;entryDy=0;" edge="1" parent="1" source="HJKKe0q7DVVsvUEyXQ_3-152" target="HJKKe0q7DVVsvUEyXQ_3-114">
          <mxGeometry relative="1" as="geometry">
            <mxPoint x="1170" y="390" as="sourcePoint" />
            <mxPoint x="1080" y="260" as="targetPoint" />
          </mxGeometry>
        </mxCell>
        <mxCell id="HJKKe0q7DVVsvUEyXQ_3-164" value="" style="endArrow=none;html=1;rounded=0;fontFamily=Helvetica;fontSize=12;fontColor=default;exitX=0;exitY=1;exitDx=0;exitDy=0;entryX=0.5;entryY=0;entryDx=0;entryDy=0;" edge="1" parent="1">
          <mxGeometry relative="1" as="geometry">
            <mxPoint x="760" y="440" as="sourcePoint" />
            <mxPoint x="680" y="500" as="targetPoint" />
          </mxGeometry>
        </mxCell>
        <mxCell id="HJKKe0q7DVVsvUEyXQ_3-166" value="" style="endArrow=none;html=1;rounded=0;fontFamily=Helvetica;fontSize=12;fontColor=default;exitX=0.5;exitY=0;exitDx=0;exitDy=0;entryX=0.5;entryY=1;entryDx=0;entryDy=0;" edge="1" parent="1" source="HJKKe0q7DVVsvUEyXQ_3-152" target="HJKKe0q7DVVsvUEyXQ_3-116">
          <mxGeometry relative="1" as="geometry">
            <mxPoint x="1170" y="390" as="sourcePoint" />
            <mxPoint x="1330" y="390" as="targetPoint" />
          </mxGeometry>
        </mxCell>
        <mxCell id="HJKKe0q7DVVsvUEyXQ_3-167" value="" style="endArrow=none;html=1;rounded=0;fontFamily=Helvetica;fontSize=12;fontColor=default;exitX=0.5;exitY=1;exitDx=0;exitDy=0;entryX=0;entryY=0;entryDx=0;entryDy=0;" edge="1" parent="1" source="HJKKe0q7DVVsvUEyXQ_3-97" target="HJKKe0q7DVVsvUEyXQ_3-152">
          <mxGeometry relative="1" as="geometry">
            <mxPoint x="1170" y="390" as="sourcePoint" />
            <mxPoint x="1330" y="390" as="targetPoint" />
          </mxGeometry>
        </mxCell>
        <mxCell id="HJKKe0q7DVVsvUEyXQ_3-169" value="" style="endArrow=none;html=1;rounded=0;fontFamily=Helvetica;fontSize=12;fontColor=default;exitX=1;exitY=1;exitDx=0;exitDy=0;entryX=0.5;entryY=0;entryDx=0;entryDy=0;" edge="1" parent="1" source="HJKKe0q7DVVsvUEyXQ_3-3" target="HJKKe0q7DVVsvUEyXQ_3-125">
          <mxGeometry relative="1" as="geometry">
            <mxPoint x="1170" y="390" as="sourcePoint" />
            <mxPoint x="1330" y="390" as="targetPoint" />
          </mxGeometry>
        </mxCell>
        <mxCell id="HJKKe0q7DVVsvUEyXQ_3-170" value="" style="endArrow=none;html=1;rounded=0;fontFamily=Helvetica;fontSize=12;fontColor=default;exitX=0.5;exitY=1;exitDx=0;exitDy=0;entryX=1;entryY=0;entryDx=0;entryDy=0;" edge="1" parent="1" source="HJKKe0q7DVVsvUEyXQ_3-121" target="HJKKe0q7DVVsvUEyXQ_3-3">
          <mxGeometry relative="1" as="geometry">
            <mxPoint x="1170" y="390" as="sourcePoint" />
            <mxPoint x="1330" y="390" as="targetPoint" />
          </mxGeometry>
        </mxCell>
        <mxCell id="HJKKe0q7DVVsvUEyXQ_3-172" value="" style="endArrow=none;html=1;rounded=0;fontFamily=Helvetica;fontSize=12;fontColor=default;entryX=0.5;entryY=0;entryDx=0;entryDy=0;exitX=0.438;exitY=1;exitDx=0;exitDy=0;exitPerimeter=0;" edge="1" parent="1" source="HJKKe0q7DVVsvUEyXQ_3-129" target="HJKKe0q7DVVsvUEyXQ_3-3">
          <mxGeometry relative="1" as="geometry">
            <mxPoint x="290" y="190" as="sourcePoint" />
            <mxPoint x="1330" y="390" as="targetPoint" />
          </mxGeometry>
        </mxCell>
        <mxCell id="HJKKe0q7DVVsvUEyXQ_3-173" value="" style="endArrow=none;html=1;rounded=0;fontFamily=Helvetica;fontSize=12;fontColor=default;exitX=0.5;exitY=1;exitDx=0;exitDy=0;entryX=0.5;entryY=0;entryDx=0;entryDy=0;" edge="1" parent="1" source="HJKKe0q7DVVsvUEyXQ_3-3" target="HJKKe0q7DVVsvUEyXQ_3-120">
          <mxGeometry relative="1" as="geometry">
            <mxPoint x="1170" y="390" as="sourcePoint" />
            <mxPoint x="1330" y="390" as="targetPoint" />
          </mxGeometry>
        </mxCell>
        <mxCell id="HJKKe0q7DVVsvUEyXQ_3-175" value="" style="endArrow=none;html=1;rounded=0;fontFamily=Helvetica;fontSize=12;fontColor=default;exitX=0;exitY=1;exitDx=0;exitDy=0;entryX=0.5;entryY=0;entryDx=0;entryDy=0;" edge="1" parent="1" source="HJKKe0q7DVVsvUEyXQ_3-3" target="HJKKe0q7DVVsvUEyXQ_3-126">
          <mxGeometry relative="1" as="geometry">
            <mxPoint x="1170" y="390" as="sourcePoint" />
            <mxPoint x="1330" y="390" as="targetPoint" />
          </mxGeometry>
        </mxCell>
        <mxCell id="HJKKe0q7DVVsvUEyXQ_3-176" value="" style="endArrow=none;html=1;rounded=0;fontFamily=Helvetica;fontSize=12;fontColor=default;exitX=0;exitY=0;exitDx=0;exitDy=0;entryX=0.5;entryY=1;entryDx=0;entryDy=0;" edge="1" parent="1" source="HJKKe0q7DVVsvUEyXQ_3-3">
          <mxGeometry relative="1" as="geometry">
            <mxPoint x="1170" y="390" as="sourcePoint" />
            <mxPoint x="90" y="250" as="targetPoint" />
          </mxGeometry>
        </mxCell>
        <mxCell id="HJKKe0q7DVVsvUEyXQ_3-177" value="" style="endArrow=none;html=1;rounded=0;fontFamily=Helvetica;fontSize=12;fontColor=default;exitX=0.5;exitY=1;exitDx=0;exitDy=0;" edge="1" parent="1" source="HJKKe0q7DVVsvUEyXQ_3-122" target="HJKKe0q7DVVsvUEyXQ_3-153">
          <mxGeometry relative="1" as="geometry">
            <mxPoint x="1170" y="390" as="sourcePoint" />
            <mxPoint x="1330" y="390" as="targetPoint" />
          </mxGeometry>
        </mxCell>
        <mxCell id="HJKKe0q7DVVsvUEyXQ_3-178" value="" style="endArrow=none;html=1;rounded=0;fontFamily=Helvetica;fontSize=12;fontColor=default;entryX=0.5;entryY=1;entryDx=0;entryDy=0;exitX=0.5;exitY=0;exitDx=0;exitDy=0;" edge="1" parent="1" source="HJKKe0q7DVVsvUEyXQ_3-142" target="HJKKe0q7DVVsvUEyXQ_3-153">
          <mxGeometry relative="1" as="geometry">
            <mxPoint x="1170" y="390" as="sourcePoint" />
            <mxPoint x="1330" y="390" as="targetPoint" />
          </mxGeometry>
        </mxCell>
        <mxCell id="HJKKe0q7DVVsvUEyXQ_3-179" value="" style="endArrow=none;html=1;rounded=0;fontFamily=Helvetica;fontSize=12;fontColor=default;entryX=1;entryY=0;entryDx=0;entryDy=0;exitX=0.5;exitY=1;exitDx=0;exitDy=0;" edge="1" parent="1" source="HJKKe0q7DVVsvUEyXQ_3-138" target="HJKKe0q7DVVsvUEyXQ_3-153">
          <mxGeometry relative="1" as="geometry">
            <mxPoint x="1230" y="370" as="sourcePoint" />
            <mxPoint x="1330" y="390" as="targetPoint" />
          </mxGeometry>
        </mxCell>
        <mxCell id="HJKKe0q7DVVsvUEyXQ_3-180" value="" style="endArrow=none;html=1;rounded=0;fontFamily=Helvetica;fontSize=12;fontColor=default;entryX=0.5;entryY=0;entryDx=0;entryDy=0;exitX=1;exitY=1;exitDx=0;exitDy=0;" edge="1" parent="1" source="HJKKe0q7DVVsvUEyXQ_3-153" target="HJKKe0q7DVVsvUEyXQ_3-139">
          <mxGeometry relative="1" as="geometry">
            <mxPoint x="1170" y="390" as="sourcePoint" />
            <mxPoint x="1330" y="390" as="targetPoint" />
          </mxGeometry>
        </mxCell>
        <mxCell id="HJKKe0q7DVVsvUEyXQ_3-181" value="" style="endArrow=none;html=1;rounded=0;fontFamily=Helvetica;fontSize=12;fontColor=default;entryX=0.5;entryY=0;entryDx=0;entryDy=0;exitX=0;exitY=1;exitDx=0;exitDy=0;" edge="1" parent="1" source="HJKKe0q7DVVsvUEyXQ_3-154">
          <mxGeometry relative="1" as="geometry">
            <mxPoint x="1170" y="390" as="sourcePoint" />
            <mxPoint x="1900" y="500" as="targetPoint" />
          </mxGeometry>
        </mxCell>
        <mxCell id="HJKKe0q7DVVsvUEyXQ_3-182" value="" style="endArrow=none;html=1;rounded=0;fontFamily=Helvetica;fontSize=12;fontColor=default;exitX=0.5;exitY=0;exitDx=0;exitDy=0;entryX=0.5;entryY=1;entryDx=0;entryDy=0;" edge="1" parent="1" source="HJKKe0q7DVVsvUEyXQ_3-145" target="HJKKe0q7DVVsvUEyXQ_3-154">
          <mxGeometry relative="1" as="geometry">
            <mxPoint x="1170" y="390" as="sourcePoint" />
            <mxPoint x="1330" y="390" as="targetPoint" />
          </mxGeometry>
        </mxCell>
        <mxCell id="HJKKe0q7DVVsvUEyXQ_3-183" value="" style="endArrow=none;html=1;rounded=0;fontFamily=Helvetica;fontSize=12;fontColor=default;exitX=0.5;exitY=0;exitDx=0;exitDy=0;entryX=1;entryY=1;entryDx=0;entryDy=0;" edge="1" parent="1" source="HJKKe0q7DVVsvUEyXQ_3-147" target="HJKKe0q7DVVsvUEyXQ_3-154">
          <mxGeometry relative="1" as="geometry">
            <mxPoint x="1170" y="390" as="sourcePoint" />
            <mxPoint x="1330" y="390" as="targetPoint" />
          </mxGeometry>
        </mxCell>
        <mxCell id="HJKKe0q7DVVsvUEyXQ_3-184" value="" style="endArrow=none;html=1;rounded=0;fontFamily=Helvetica;fontSize=12;fontColor=default;entryX=0.5;entryY=0;entryDx=0;entryDy=0;exitX=0.5;exitY=1;exitDx=0;exitDy=0;" edge="1" parent="1" source="HJKKe0q7DVVsvUEyXQ_3-144" target="HJKKe0q7DVVsvUEyXQ_3-154">
          <mxGeometry relative="1" as="geometry">
            <mxPoint x="1170" y="390" as="sourcePoint" />
            <mxPoint x="1330" y="390" as="targetPoint" />
          </mxGeometry>
        </mxCell>
        <mxCell id="HJKKe0q7DVVsvUEyXQ_3-186" value="" style="endArrow=none;html=1;rounded=0;fontFamily=Helvetica;fontSize=12;fontColor=default;entryX=0;entryY=0;entryDx=0;entryDy=0;exitX=0.5;exitY=1;exitDx=0;exitDy=0;exitPerimeter=0;" edge="1" parent="1" source="HJKKe0q7DVVsvUEyXQ_3-195" target="HJKKe0q7DVVsvUEyXQ_3-154">
          <mxGeometry relative="1" as="geometry">
            <mxPoint x="1900" y="260" as="sourcePoint" />
            <mxPoint x="1330" y="390" as="targetPoint" />
          </mxGeometry>
        </mxCell>
        <mxCell id="HJKKe0q7DVVsvUEyXQ_3-187" value="" style="endArrow=none;html=1;rounded=0;fontFamily=Helvetica;fontSize=12;fontColor=default;entryX=1;entryY=0;entryDx=0;entryDy=0;exitX=0.5;exitY=1;exitDx=0;exitDy=0;" edge="1" parent="1" source="HJKKe0q7DVVsvUEyXQ_3-146" target="HJKKe0q7DVVsvUEyXQ_3-154">
          <mxGeometry relative="1" as="geometry">
            <mxPoint x="1170" y="390" as="sourcePoint" />
            <mxPoint x="1330" y="390" as="targetPoint" />
          </mxGeometry>
        </mxCell>
        <mxCell id="HJKKe0q7DVVsvUEyXQ_3-193" value="&lt;span style=&quot;font-size: 36px;&quot;&gt;&lt;b&gt;Phone&lt;/b&gt;&lt;/span&gt;" style="ellipse;shape=doubleEllipse;margin=3;whiteSpace=wrap;html=1;align=center;strokeColor=#56517e;verticalAlign=middle;fontFamily=Helvetica;fontSize=12;fillColor=#d0cee2;" vertex="1" parent="1">
          <mxGeometry y="150" width="160" height="110" as="geometry" />
        </mxCell>
        <mxCell id="HJKKe0q7DVVsvUEyXQ_3-194" value="&lt;span style=&quot;font-size: 36px;&quot;&gt;&lt;b&gt;Phone&lt;/b&gt;&lt;/span&gt;" style="ellipse;shape=doubleEllipse;margin=3;whiteSpace=wrap;html=1;align=center;strokeColor=#56517e;verticalAlign=middle;fontFamily=Helvetica;fontSize=12;fillColor=#d0cee2;" vertex="1" parent="1">
          <mxGeometry x="1820" y="500" width="160" height="110" as="geometry" />
        </mxCell>
        <mxCell id="HJKKe0q7DVVsvUEyXQ_3-195" value="&lt;span style=&quot;font-size: 36px;&quot;&gt;&lt;b&gt;Adress&lt;/b&gt;&lt;/span&gt;" style="ellipse;shape=doubleEllipse;margin=3;whiteSpace=wrap;html=1;align=center;strokeColor=#56517e;verticalAlign=middle;fontFamily=Helvetica;fontSize=12;fillColor=#d0cee2;" vertex="1" parent="1">
          <mxGeometry x="1830" y="145" width="160" height="95" as="geometry" />
        </mxCell>
        <mxCell id="HJKKe0q7DVVsvUEyXQ_3-196" value="&lt;font style=&quot;font-size: 24px;&quot;&gt;&lt;b style=&quot;&quot;&gt;has&lt;/b&gt;&lt;/font&gt;" style="shape=rhombus;perimeter=rhombusPerimeter;whiteSpace=wrap;html=1;align=center;strokeColor=#666666;verticalAlign=middle;fontFamily=Helvetica;fontSize=12;fontColor=#333333;fillColor=#f5f5f5;" vertex="1" parent="1">
          <mxGeometry x="480" y="320" width="150" height="80" as="geometry" />
        </mxCell>
        <mxCell id="HJKKe0q7DVVsvUEyXQ_3-197" value="&lt;b&gt;&lt;font style=&quot;font-size: 24px;&quot;&gt;includes&lt;/font&gt;&lt;/b&gt;" style="shape=rhombus;perimeter=rhombusPerimeter;whiteSpace=wrap;html=1;align=center;strokeColor=#666666;verticalAlign=middle;fontFamily=Helvetica;fontSize=12;fontColor=#333333;fillColor=#f5f5f5;" vertex="1" parent="1">
          <mxGeometry x="1110" y="320" width="150" height="80" as="geometry" />
        </mxCell>
        <mxCell id="HJKKe0q7DVVsvUEyXQ_3-198" value="&lt;b&gt;&lt;font style=&quot;font-size: 18px;&quot;&gt;Relationship&lt;/font&gt;&lt;/b&gt;" style="shape=rhombus;perimeter=rhombusPerimeter;whiteSpace=wrap;html=1;align=center;strokeColor=#666666;verticalAlign=middle;fontFamily=Helvetica;fontSize=12;fontColor=#333333;fillColor=#f5f5f5;" vertex="1" parent="1">
          <mxGeometry x="1720" y="320" width="150" height="80" as="geometry" />
        </mxCell>
        <mxCell id="HJKKe0q7DVVsvUEyXQ_3-199" value="" style="endArrow=none;html=1;rounded=0;fontFamily=Helvetica;fontSize=12;fontColor=default;exitX=1;exitY=0.5;exitDx=0;exitDy=0;" edge="1" parent="1" source="HJKKe0q7DVVsvUEyXQ_3-197">
          <mxGeometry relative="1" as="geometry">
            <mxPoint x="1260" y="370" as="sourcePoint" />
            <mxPoint x="1400" y="360" as="targetPoint" />
          </mxGeometry>
        </mxCell>
        <mxCell id="HJKKe0q7DVVsvUEyXQ_3-200" value="" style="endArrow=none;html=1;rounded=0;fontFamily=Helvetica;fontSize=12;fontColor=default;entryX=0;entryY=0.5;entryDx=0;entryDy=0;exitX=1.003;exitY=0.353;exitDx=0;exitDy=0;exitPerimeter=0;" edge="1" parent="1" source="HJKKe0q7DVVsvUEyXQ_3-153" target="HJKKe0q7DVVsvUEyXQ_3-198">
          <mxGeometry relative="1" as="geometry">
            <mxPoint x="1650" y="360" as="sourcePoint" />
            <mxPoint x="1420" y="120" as="targetPoint" />
          </mxGeometry>
        </mxCell>
        <mxCell id="HJKKe0q7DVVsvUEyXQ_3-201" value="" style="endArrow=none;html=1;rounded=0;fontFamily=Helvetica;fontSize=12;fontColor=default;exitX=1;exitY=0.5;exitDx=0;exitDy=0;entryX=-0.003;entryY=0.364;entryDx=0;entryDy=0;entryPerimeter=0;" edge="1" parent="1" source="HJKKe0q7DVVsvUEyXQ_3-198" target="HJKKe0q7DVVsvUEyXQ_3-154">
          <mxGeometry relative="1" as="geometry">
            <mxPoint x="1260" y="120" as="sourcePoint" />
            <mxPoint x="1950" y="360" as="targetPoint" />
          </mxGeometry>
        </mxCell>
        <mxCell id="HJKKe0q7DVVsvUEyXQ_3-203" value="" style="endArrow=none;html=1;rounded=0;fontFamily=Helvetica;fontSize=12;fontColor=default;exitX=-0.014;exitY=0.353;exitDx=0;exitDy=0;entryX=1;entryY=0.5;entryDx=0;entryDy=0;exitPerimeter=0;" edge="1" parent="1" source="HJKKe0q7DVVsvUEyXQ_3-152" target="HJKKe0q7DVVsvUEyXQ_3-196">
          <mxGeometry relative="1" as="geometry">
            <mxPoint x="1260" y="120" as="sourcePoint" />
            <mxPoint x="1420" y="120" as="targetPoint" />
          </mxGeometry>
        </mxCell>
        <mxCell id="HJKKe0q7DVVsvUEyXQ_3-204" value="" style="endArrow=none;html=1;rounded=0;fontFamily=Helvetica;fontSize=12;fontColor=default;exitX=1.014;exitY=0.353;exitDx=0;exitDy=0;exitPerimeter=0;entryX=0;entryY=0.5;entryDx=0;entryDy=0;" edge="1" parent="1" source="HJKKe0q7DVVsvUEyXQ_3-3" target="HJKKe0q7DVVsvUEyXQ_3-196">
          <mxGeometry relative="1" as="geometry">
            <mxPoint x="490" y="120" as="sourcePoint" />
            <mxPoint x="650" y="120" as="targetPoint" />
          </mxGeometry>
        </mxCell>
        <mxCell id="HJKKe0q7DVVsvUEyXQ_3-205" value="" style="endArrow=none;html=1;rounded=0;fontFamily=Helvetica;fontSize=12;fontColor=default;exitX=1.014;exitY=0.353;exitDx=0;exitDy=0;exitPerimeter=0;entryX=0;entryY=0.5;entryDx=0;entryDy=0;" edge="1" parent="1" source="HJKKe0q7DVVsvUEyXQ_3-152" target="HJKKe0q7DVVsvUEyXQ_3-197">
          <mxGeometry relative="1" as="geometry">
            <mxPoint x="1610" y="120" as="sourcePoint" />
            <mxPoint x="1770" y="120" as="targetPoint" />
          </mxGeometry>
        </mxCell>
      </root>
    </mxGraphModel>
  </diagram>
</mxfile>
